<svg xmlns="http://www.w3.org/2000/svg" xmlns:xlink="http://www.w3.org/1999/xlink" width="500" zoomAndPan="magnify" viewBox="0 0 375 374.999991" height="500" preserveAspectRatio="xMidYMid meet" version="1.0"><defs><clipPath id="bd5b699c5f"><path d="M 60 112 L 341.253906 112 L 341.253906 283 L 60 283 Z M 60 112 " clip-rule="nonzero"/></clipPath><clipPath id="1acbfac5f3"><path d="M 33.753906 69.882812 L 270 69.882812 L 270 305.382812 L 33.753906 305.382812 Z M 33.753906 69.882812 " clip-rule="nonzero"/></clipPath></defs><g clip-path="url(#bd5b699c5f)"><path fill="#fffcf6" d="M 109.1875 123.804688 C 109.25 123.757812 109.320312 123.703125 109.390625 123.652344 C 109.425781 123.628906 109.460938 123.601562 109.496094 123.574219 C 109.535156 123.550781 109.570312 123.523438 109.609375 123.5 C 109.761719 123.394531 109.925781 123.28125 110.09375 123.167969 C 110.777344 122.726562 111.589844 122.234375 112.523438 121.816406 C 113.453125 121.390625 114.484375 121.015625 115.554688 120.742188 C 116.625 120.464844 117.734375 120.289062 118.816406 120.21875 C 119.898438 120.148438 120.949219 120.175781 121.917969 120.273438 C 122.886719 120.371094 123.773438 120.539062 124.546875 120.707031 C 125.324219 120.867188 125.984375 121.058594 126.527344 121.160156 C 127.613281 121.394531 128.507812 121.578125 129.300781 121.675781 C 129.496094 121.703125 129.6875 121.726562 129.871094 121.738281 C 129.964844 121.742188 130.058594 121.746094 130.144531 121.75 C 130.234375 121.753906 130.320312 121.757812 130.40625 121.757812 C 130.582031 121.765625 130.75 121.757812 130.910156 121.742188 C 130.953125 121.738281 130.992188 121.738281 131.035156 121.734375 C 131.074219 121.730469 131.113281 121.726562 131.152344 121.722656 C 131.230469 121.714844 131.308594 121.707031 131.382812 121.695312 C 131.535156 121.671875 131.683594 121.640625 131.828125 121.605469 C 131.972656 121.570312 132.117188 121.523438 132.25 121.476562 C 132.515625 121.378906 132.769531 121.257812 133.007812 121.109375 C 133.480469 120.8125 133.886719 120.40625 134.21875 119.925781 C 134.550781 119.441406 134.777344 118.921875 134.828125 118.347656 C 134.851562 118.058594 134.832031 117.757812 134.761719 117.441406 C 134.726562 117.28125 134.675781 117.125 134.609375 116.964844 C 134.542969 116.804688 134.460938 116.644531 134.363281 116.472656 C 134.316406 116.390625 134.265625 116.308594 134.207031 116.21875 C 134.179688 116.179688 134.148438 116.136719 134.121094 116.089844 C 134.089844 116.050781 134.058594 116.011719 134.023438 115.96875 C 133.890625 115.800781 133.742188 115.632812 133.574219 115.460938 C 133.492188 115.375 133.402344 115.289062 133.3125 115.199219 C 133.21875 115.121094 133.117188 115.035156 133.011719 114.953125 C 132.804688 114.785156 132.578125 114.617188 132.332031 114.453125 C 132.078125 114.292969 131.808594 114.136719 131.519531 113.976562 C 131.375 113.894531 131.21875 113.828125 131.0625 113.753906 C 130.902344 113.679688 130.738281 113.609375 130.570312 113.539062 C 130.488281 113.503906 130.402344 113.464844 130.316406 113.433594 C 130.226562 113.402344 130.136719 113.371094 130.046875 113.335938 C 129.867188 113.273438 129.679688 113.210938 129.488281 113.152344 C 129.394531 113.121094 129.296875 113.089844 129.195312 113.066406 C 129.097656 113.039062 128.996094 113.011719 128.894531 112.984375 C 128.691406 112.933594 128.484375 112.882812 128.269531 112.835938 C 127.40625 112.667969 126.324219 112.542969 125.101562 112.585938 C 123.882812 112.621094 122.53125 112.792969 121.164062 113.136719 C 119.796875 113.484375 118.410156 114 117.109375 114.660156 C 115.808594 115.320312 114.597656 116.125 113.539062 116.996094 C 112.480469 117.867188 111.574219 118.8125 110.839844 119.71875 C 110.097656 120.625 109.542969 121.515625 109.113281 122.273438 C 109.011719 122.460938 108.914062 122.644531 108.820312 122.816406 C 108.796875 122.859375 108.777344 122.902344 108.753906 122.941406 C 108.730469 122.984375 108.710938 123.027344 108.691406 123.070312 C 108.652344 123.152344 108.613281 123.234375 108.578125 123.308594 C 108.433594 123.621094 108.304688 123.886719 108.21875 124.113281 C 108.042969 124.558594 107.945312 124.804688 107.945312 124.804688 C 107.945312 124.804688 108.148438 124.632812 108.511719 124.332031 C 108.6875 124.175781 108.925781 124.003906 109.1875 123.804688 Z M 336.453125 200.898438 C 333.394531 200.277344 328.894531 199.355469 323.078125 198.644531 C 321.625 198.484375 320.089844 198.277344 318.476562 198.160156 C 317.667969 198.089844 316.839844 198.023438 315.996094 197.949219 C 315.148438 197.902344 314.28125 197.855469 313.398438 197.808594 C 312.953125 197.78125 312.503906 197.757812 312.054688 197.734375 C 311.601562 197.722656 311.144531 197.710938 310.683594 197.699219 C 309.757812 197.683594 308.820312 197.644531 307.859375 197.644531 C 306.894531 197.648438 305.917969 197.65625 304.921875 197.664062 C 303.929688 197.671875 302.917969 197.730469 301.890625 197.765625 C 293.660156 198.125 284.316406 199.433594 274.460938 202.375 C 269.53125 203.824219 264.503906 205.710938 259.433594 207.953125 C 258.796875 208.226562 258.164062 208.523438 257.53125 208.816406 C 256.898438 209.113281 256.265625 209.414062 255.625 209.710938 C 254.363281 210.332031 253.078125 210.945312 251.816406 211.609375 C 249.265625 212.90625 246.734375 214.316406 244.195312 215.78125 C 234.023438 221.636719 223.988281 228.742188 213.78125 235.753906 C 208.671875 239.257812 203.503906 242.71875 198.21875 245.921875 C 192.925781 249.109375 187.523438 252.0625 181.96875 254.453125 C 176.417969 256.847656 170.738281 258.742188 164.960938 259.914062 C 162.074219 260.496094 159.167969 260.945312 156.246094 261.195312 L 155.972656 261.226562 C 156.441406 261.164062 156.015625 261.214844 156.078125 261.203125 L 155.925781 261.210938 L 155.300781 261.253906 L 152.8125 261.417969 C 152.71875 261.421875 152.59375 261.4375 152.519531 261.433594 L 152.273438 261.429688 L 151.785156 261.425781 L 149.84375 261.425781 L 147.730469 261.332031 L 146.675781 261.285156 L 145.625 261.183594 C 144.925781 261.109375 144.222656 261.058594 143.527344 260.972656 C 142.136719 260.757812 140.75 260.597656 139.382812 260.289062 C 138.007812 260.050781 136.664062 259.675781 135.316406 259.34375 C 134.648438 259.164062 133.988281 258.945312 133.324219 258.75 L 132.332031 258.453125 L 131.355469 258.097656 C 126.136719 256.285156 121.257812 253.707031 116.867188 250.605469 L 115.246094 249.410156 C 114.703125 249.019531 114.203125 248.570312 113.679688 248.15625 L 112.902344 247.53125 C 112.546875 247.238281 112.222656 246.902344 111.859375 246.621094 C 111.429688 246.222656 111 245.828125 110.570312 245.433594 C 109.671875 244.53125 108.742188 243.675781 107.910156 242.722656 L 106.914062 241.644531 L 106.597656 241.269531 C 106.179688 240.769531 105.765625 240.273438 105.347656 239.773438 C 104.929688 239.285156 104.5625 238.746094 104.167969 238.238281 C 103.773438 237.726562 103.382812 237.21875 103.035156 236.679688 C 102.671875 236.152344 102.308594 235.628906 101.949219 235.101562 C 101.617188 234.558594 101.285156 234.015625 100.953125 233.476562 L 100.453125 232.671875 L 100.003906 231.839844 C 99.703125 231.285156 99.390625 230.742188 99.101562 230.1875 C 98.828125 229.625 98.554688 229.0625 98.285156 228.503906 C 98.152344 228.222656 98 227.949219 97.882812 227.664062 L 97.523438 226.808594 C 96.503906 224.5625 95.757812 222.230469 95.058594 219.9375 C 94.941406 219.492188 94.824219 219.046875 94.707031 218.601562 C 94.613281 218.167969 94.484375 217.746094 94.382812 217.316406 L 94.207031 216.4375 C 94.085938 215.859375 93.964844 215.277344 93.84375 214.699219 C 93.753906 214.113281 93.664062 213.53125 93.578125 212.949219 C 93.363281 211.796875 93.296875 210.625 93.164062 209.476562 L 93.117188 209.042969 C 93.101562 208.925781 93.207031 209.71875 93.15625 209.316406 L 93.148438 209.179688 L 93.128906 208.898438 L 93.058594 207.792969 L 92.984375 206.691406 L 92.949219 206.140625 C 92.9375 205.964844 92.917969 205.742188 92.929688 205.644531 C 92.945312 205.15625 92.957031 204.671875 92.960938 204.1875 L 92.964844 203.46875 C 92.96875 203.222656 92.996094 202.917969 93.007812 202.644531 C 93.035156 202.089844 93.0625 201.53125 93.089844 200.980469 C 93.09375 200.703125 93.125 200.425781 93.15625 200.152344 L 93.242188 199.332031 C 94.078125 190.582031 97.101562 182.792969 101.023438 176.484375 C 104.960938 170.148438 109.839844 165.320312 114.609375 161.890625 C 116.992188 160.167969 119.351562 158.78125 121.585938 157.632812 C 122.152344 157.363281 122.707031 157.097656 123.246094 156.839844 C 123.511719 156.703125 123.789062 156.59375 124.0625 156.480469 C 124.332031 156.367188 124.597656 156.257812 124.863281 156.144531 C 125.902344 155.671875 126.949219 155.351562 127.910156 154.984375 C 128.390625 154.800781 128.882812 154.683594 129.34375 154.53125 C 129.8125 154.398438 130.257812 154.242188 130.699219 154.121094 C 131.59375 153.910156 132.414062 153.679688 133.191406 153.503906 C 133.976562 153.359375 134.699219 153.210938 135.355469 153.074219 C 135.765625 153.015625 136.152344 152.957031 136.519531 152.90625 C 135.773438 152.8125 134.980469 152.714844 134.136719 152.640625 C 131.980469 152.421875 129.519531 152.246094 126.851562 152.277344 C 124.183594 152.304688 121.3125 152.546875 118.390625 153.074219 C 115.46875 153.601562 112.503906 154.421875 109.675781 155.5 C 106.847656 156.578125 104.160156 157.914062 101.765625 159.359375 C 99.351562 160.785156 97.289062 162.367188 95.5625 163.785156 C 95.136719 164.148438 94.730469 164.496094 94.347656 164.824219 C 94.25 164.910156 94.15625 164.988281 94.0625 165.070312 C 93.972656 165.152344 93.882812 165.238281 93.796875 165.320312 C 93.621094 165.484375 93.453125 165.644531 93.289062 165.800781 C 92.636719 166.421875 92.046875 166.953125 91.617188 167.433594 C 90.714844 168.371094 90.214844 168.894531 90.214844 168.894531 C 90.214844 168.894531 90.40625 168.191406 90.753906 166.925781 C 90.914062 166.28125 91.183594 165.53125 91.484375 164.636719 C 91.558594 164.414062 91.636719 164.179688 91.71875 163.945312 C 91.761719 163.824219 91.800781 163.703125 91.84375 163.582031 C 91.894531 163.460938 91.941406 163.339844 91.992188 163.21875 C 92.191406 162.71875 92.402344 162.191406 92.625 161.640625 C 93.558594 159.457031 94.796875 156.859375 96.539062 154.167969 C 98.257812 151.46875 100.429688 148.632812 103.046875 145.929688 C 105.65625 143.230469 108.8125 140.820312 112.046875 138.476562 C 116.8125 135.027344 123.367188 132.847656 128.625 131.5625 C 133.523438 130.363281 136.710938 125.648438 136.003906 120.648438 C 136 120.625 135.996094 120.601562 135.992188 120.578125 C 135.695312 121.132812 135.335938 121.640625 134.90625 122.078125 C 134.597656 122.394531 134.25 122.679688 133.871094 122.921875 C 133.683594 123.039062 133.484375 123.160156 133.273438 123.273438 C 133.066406 123.378906 132.847656 123.480469 132.621094 123.570312 C 132.507812 123.617188 132.394531 123.660156 132.277344 123.699219 C 132.21875 123.71875 132.15625 123.738281 132.097656 123.753906 C 132.035156 123.777344 131.976562 123.796875 131.914062 123.816406 C 131.667969 123.898438 131.410156 123.964844 131.144531 124.023438 C 131.011719 124.054688 130.875 124.078125 130.738281 124.101562 C 130.597656 124.128906 130.457031 124.160156 130.3125 124.183594 C 130.019531 124.234375 129.722656 124.265625 129.410156 124.296875 C 128.15625 124.433594 126.707031 124.472656 124.953125 124.507812 C 124.078125 124.550781 122.996094 124.488281 121.742188 124.527344 C 120.492188 124.550781 119.066406 124.613281 117.539062 124.816406 C 116.011719 125.019531 114.382812 125.351562 112.742188 125.855469 C 111.105469 126.355469 109.460938 127.027344 107.910156 127.839844 C 106.363281 128.652344 104.914062 129.605469 103.636719 130.59375 C 102.351562 131.582031 101.277344 132.628906 100.386719 133.5625 C 100.167969 133.796875 99.957031 134.023438 99.757812 134.238281 C 99.710938 134.292969 99.660156 134.34375 99.613281 134.398438 C 99.566406 134.453125 99.523438 134.507812 99.476562 134.558594 C 99.386719 134.667969 99.300781 134.769531 99.21875 134.867188 C 98.886719 135.269531 98.585938 135.617188 98.371094 135.921875 C 97.921875 136.519531 97.667969 136.855469 97.667969 136.855469 C 97.667969 136.855469 97.730469 136.4375 97.839844 135.691406 C 97.890625 135.308594 97.992188 134.859375 98.105469 134.324219 C 98.132812 134.191406 98.164062 134.058594 98.191406 133.914062 C 98.207031 133.84375 98.222656 133.769531 98.242188 133.695312 C 98.257812 133.625 98.277344 133.550781 98.300781 133.480469 C 98.378906 133.179688 98.464844 132.863281 98.554688 132.53125 C 98.941406 131.21875 99.472656 129.640625 100.285156 127.980469 C 101.089844 126.3125 102.140625 124.535156 103.457031 122.808594 C 104.042969 122.035156 104.683594 121.277344 105.371094 120.535156 C 105.351562 120.546875 105.332031 120.558594 105.316406 120.566406 C 104.851562 120.824219 104.386719 121.082031 103.929688 121.375 C 103.011719 121.949219 102.074219 122.53125 101.117188 123.128906 C 97.34375 125.597656 93.449219 128.519531 89.613281 131.988281 C 85.78125 135.453125 82.015625 139.464844 78.527344 144.039062 C 75.035156 148.609375 71.824219 153.746094 69.105469 159.386719 C 66.382812 165.023438 64.148438 171.175781 62.609375 177.703125 C 61.046875 184.222656 60.261719 191.140625 60.308594 198.195312 C 60.308594 198.640625 60.3125 199.078125 60.316406 199.519531 C 60.316406 199.964844 60.320312 200.40625 60.351562 200.851562 C 60.402344 201.734375 60.449219 202.621094 60.5 203.511719 C 60.527344 203.960938 60.542969 204.386719 60.585938 204.863281 C 60.636719 205.347656 60.683594 205.835938 60.734375 206.320312 C 60.839844 207.289062 60.945312 208.261719 61.050781 209.238281 C 61.078125 209.511719 61.109375 209.648438 61.140625 209.84375 L 61.230469 210.386719 L 61.414062 211.476562 L 61.597656 212.570312 L 61.667969 212.980469 C 61.628906 212.671875 61.746094 213.546875 61.746094 213.527344 L 61.882812 214.191406 C 62.261719 215.964844 62.59375 217.753906 63.089844 219.519531 C 63.328125 220.402344 63.554688 221.289062 63.804688 222.171875 C 64.082031 223.050781 64.359375 223.925781 64.640625 224.808594 L 65.0625 226.128906 C 65.21875 226.5625 65.382812 226.996094 65.542969 227.429688 C 65.871094 228.300781 66.199219 229.167969 66.527344 230.039062 C 67.957031 233.476562 69.511719 236.898438 71.402344 240.164062 L 72.09375 241.398438 C 72.320312 241.8125 72.585938 242.203125 72.828125 242.605469 C 73.332031 243.410156 73.832031 244.210938 74.335938 245.015625 C 74.859375 245.804688 75.410156 246.582031 75.949219 247.359375 L 76.761719 248.527344 L 77.628906 249.660156 C 78.210938 250.417969 78.785156 251.175781 79.375 251.921875 C 79.992188 252.648438 80.609375 253.375 81.226562 254.101562 C 81.835938 254.839844 82.492188 255.535156 83.144531 256.234375 C 83.804688 256.925781 84.4375 257.640625 85.128906 258.308594 C 85.816406 258.976562 86.5 259.640625 87.191406 260.3125 L 87.710938 260.804688 L 88.25 261.285156 L 89.328125 262.238281 C 90.746094 263.53125 92.28125 264.695312 93.777344 265.898438 C 94.550781 266.472656 95.332031 267.03125 96.113281 267.597656 C 96.507812 267.878906 96.890625 268.164062 97.289062 268.433594 L 98.5 269.226562 C 99.3125 269.746094 100.101562 270.296875 100.933594 270.785156 C 101.765625 271.273438 102.597656 271.761719 103.429688 272.25 C 110.160156 276.027344 117.417969 278.917969 124.941406 280.691406 L 126.347656 281.03125 L 127.769531 281.3125 C 128.71875 281.488281 129.664062 281.691406 130.617188 281.847656 C 132.527344 282.121094 134.433594 282.421875 136.355469 282.566406 C 138.269531 282.777344 140.199219 282.824219 142.117188 282.90625 C 143.074219 282.929688 144.035156 282.902344 144.996094 282.902344 L 146.433594 282.882812 L 147.867188 282.808594 C 148.828125 282.75 149.769531 282.703125 150.738281 282.628906 L 153.765625 282.304688 L 154.523438 282.21875 L 154.898438 282.171875 C 155.027344 282.160156 155.109375 282.140625 155.21875 282.125 L 156.449219 281.917969 L 159.203125 281.453125 C 162.851562 280.757812 166.441406 279.824219 169.949219 278.722656 C 176.980469 276.535156 183.613281 273.515625 189.765625 270.082031 C 195.929688 266.648438 201.582031 262.75 206.914062 258.757812 C 212.226562 254.746094 217.214844 250.621094 222.007812 246.566406 C 226.808594 242.507812 231.429688 238.527344 235.996094 234.753906 C 240.558594 230.976562 245.070312 227.410156 249.589844 224.148438 C 251.847656 222.527344 254.101562 220.957031 256.367188 219.5 C 257.492188 218.75 258.632812 218.0625 259.757812 217.355469 C 260.328125 217.015625 260.894531 216.675781 261.457031 216.335938 C 262.019531 216.003906 262.585938 215.664062 263.152344 215.351562 C 267.683594 212.773438 272.203125 210.53125 276.6875 208.707031 C 285.640625 205.015625 294.375 202.859375 302.257812 201.710938 C 303.246094 201.578125 304.214844 201.421875 305.175781 201.316406 C 306.136719 201.214844 307.078125 201.113281 308.007812 201.011719 C 308.9375 200.917969 309.851562 200.863281 310.75 200.789062 C 311.195312 200.753906 311.644531 200.71875 312.085938 200.683594 C 312.523438 200.664062 312.964844 200.644531 313.398438 200.625 C 314.265625 200.585938 315.113281 200.546875 315.945312 200.507812 C 316.777344 200.492188 317.589844 200.480469 318.386719 200.464844 C 319.984375 200.421875 321.5 200.476562 322.945312 200.484375 C 328.734375 200.609375 333.277344 201.0625 336.371094 201.375 C 339.464844 201.757812 341.113281 201.960938 341.113281 201.960938 C 341.113281 201.960938 339.492188 201.59375 336.453125 200.898438 Z M 126.054688 169.664062 C 125.953125 169.535156 125.835938 169.40625 125.703125 169.277344 C 125.636719 169.210938 125.566406 169.148438 125.496094 169.082031 C 125.457031 169.050781 125.417969 169.019531 125.382812 168.988281 C 125.34375 168.953125 125.300781 168.925781 125.261719 168.894531 C 125.09375 168.773438 124.914062 168.65625 124.714844 168.542969 C 124.617188 168.484375 124.511719 168.425781 124.40625 168.371094 C 124.296875 168.316406 124.183594 168.269531 124.066406 168.214844 C 123.832031 168.117188 123.578125 168.015625 123.308594 167.929688 C 123.035156 167.847656 122.746094 167.773438 122.433594 167.699219 C 122.28125 167.660156 122.121094 167.640625 121.957031 167.613281 C 121.792969 167.585938 121.625 167.558594 121.449219 167.539062 C 121.363281 167.527344 121.273438 167.515625 121.1875 167.503906 C 121.097656 167.5 121.007812 167.496094 120.914062 167.488281 C 120.730469 167.476562 120.542969 167.46875 120.351562 167.460938 C 120.253906 167.457031 120.15625 167.449219 120.058594 167.453125 C 119.960938 167.453125 119.859375 167.457031 119.761719 167.460938 C 119.558594 167.464844 119.355469 167.472656 119.144531 167.480469 C 118.304688 167.546875 117.269531 167.707031 116.15625 168.0625 C 115.039062 168.40625 113.835938 168.914062 112.660156 169.582031 C 111.484375 170.253906 110.335938 171.085938 109.308594 172.027344 C 108.273438 172.972656 107.359375 174.027344 106.605469 175.101562 C 105.851562 176.179688 105.257812 177.28125 104.8125 178.308594 C 104.359375 179.335938 104.074219 180.304688 103.871094 181.109375 C 103.824219 181.3125 103.78125 181.503906 103.738281 181.6875 C 103.730469 181.734375 103.71875 181.777344 103.707031 181.820312 C 103.699219 181.867188 103.691406 181.910156 103.683594 181.953125 C 103.671875 182.042969 103.65625 182.125 103.640625 182.207031 C 103.585938 182.53125 103.535156 182.808594 103.515625 183.039062 C 103.464844 183.492188 103.4375 183.75 103.4375 183.75 C 103.4375 183.75 103.582031 183.539062 103.84375 183.164062 C 103.964844 182.976562 104.140625 182.757812 104.332031 182.507812 C 104.378906 182.445312 104.425781 182.382812 104.480469 182.316406 C 104.503906 182.28125 104.53125 182.25 104.558594 182.214844 C 104.585938 182.179688 104.613281 182.148438 104.640625 182.113281 C 104.757812 181.980469 104.878906 181.835938 105.003906 181.6875 C 105.523438 181.105469 106.148438 180.441406 106.902344 179.816406 C 107.652344 179.183594 108.507812 178.574219 109.425781 178.042969 C 110.34375 177.511719 111.324219 177.066406 112.304688 176.722656 C 113.285156 176.378906 114.261719 176.136719 115.183594 175.980469 C 116.105469 175.820312 116.964844 175.746094 117.722656 175.703125 C 118.480469 175.652344 119.140625 175.660156 119.667969 175.613281 C 120.726562 175.550781 121.605469 175.496094 122.359375 175.378906 C 122.550781 175.351562 122.730469 175.328125 122.902344 175.289062 C 122.988281 175.269531 123.078125 175.25 123.160156 175.230469 C 123.242188 175.214844 123.324219 175.195312 123.402344 175.171875 C 123.5625 175.132812 123.71875 175.082031 123.867188 175.027344 C 123.902344 175.015625 123.941406 175 123.976562 174.988281 C 124.011719 174.972656 124.046875 174.964844 124.082031 174.949219 C 124.152344 174.921875 124.222656 174.890625 124.289062 174.863281 C 124.421875 174.800781 124.554688 174.738281 124.675781 174.667969 C 124.800781 174.59375 124.917969 174.515625 125.03125 174.441406 C 125.253906 174.28125 125.457031 174.105469 125.636719 173.90625 C 125.996094 173.507812 126.269531 173.03125 126.453125 172.5 C 126.636719 171.96875 126.710938 171.429688 126.609375 170.886719 C 126.558594 170.613281 126.464844 170.339844 126.320312 170.066406 C 126.246094 169.929688 126.15625 169.800781 126.054688 169.664062 Z M 159.210938 168.839844 C 158.0625 167.839844 156.679688 166.859375 155.132812 166.015625 C 153.585938 165.175781 151.882812 164.476562 150.132812 163.988281 C 148.382812 163.492188 146.589844 163.203125 144.882812 163.109375 C 143.175781 163.011719 141.554688 163.109375 140.113281 163.324219 C 138.667969 163.527344 137.40625 163.875 136.375 164.203125 C 136.121094 164.292969 135.875 164.375 135.644531 164.457031 C 135.589844 164.476562 135.535156 164.496094 135.476562 164.511719 C 135.421875 164.535156 135.367188 164.558594 135.316406 164.578125 C 135.210938 164.621094 135.105469 164.664062 135.007812 164.703125 C 134.609375 164.867188 134.273438 165 134 165.136719 C 133.464844 165.394531 133.164062 165.539062 133.164062 165.539062 C 133.164062 165.539062 133.496094 165.554688 134.085938 165.585938 C 134.378906 165.589844 134.738281 165.632812 135.144531 165.675781 C 135.246094 165.683594 135.351562 165.695312 135.460938 165.703125 C 135.515625 165.710938 135.570312 165.714844 135.625 165.71875 C 135.683594 165.730469 135.738281 165.738281 135.796875 165.746094 C 136.023438 165.78125 136.265625 165.816406 136.515625 165.855469 C 137.515625 166.027344 138.675781 166.265625 139.886719 166.671875 C 141.097656 167.066406 142.359375 167.59375 143.570312 168.246094 C 144.789062 168.898438 145.953125 169.675781 147.003906 170.523438 C 148.058594 171.375 148.996094 172.289062 149.800781 173.203125 C 150.609375 174.109375 151.28125 175.011719 151.851562 175.820312 C 152.425781 176.621094 152.871094 177.359375 153.28125 177.910156 C 154.078125 179.042969 154.746094 179.972656 155.390625 180.730469 C 155.550781 180.917969 155.703125 181.101562 155.863281 181.269531 C 155.941406 181.351562 156.023438 181.429688 156.105469 181.511719 C 156.179688 181.589844 156.257812 181.667969 156.335938 181.742188 C 156.492188 181.890625 156.648438 182.027344 156.8125 182.152344 C 156.851562 182.1875 156.894531 182.214844 156.933594 182.246094 C 156.972656 182.277344 157.007812 182.308594 157.050781 182.339844 C 157.125 182.398438 157.207031 182.453125 157.285156 182.507812 C 157.445312 182.617188 157.605469 182.714844 157.769531 182.800781 C 157.933594 182.890625 158.101562 182.964844 158.261719 183.035156 C 158.589844 183.179688 158.925781 183.277344 159.269531 183.34375 C 159.953125 183.46875 160.667969 183.445312 161.378906 183.28125 C 162.09375 183.117188 162.738281 182.832031 163.269531 182.347656 C 163.535156 182.105469 163.769531 181.8125 163.972656 181.460938 C 164.074219 181.289062 164.160156 181.097656 164.234375 180.894531 C 164.308594 180.691406 164.371094 180.476562 164.425781 180.238281 C 164.449219 180.121094 164.472656 180 164.492188 179.875 C 164.503906 179.8125 164.511719 179.746094 164.523438 179.683594 C 164.53125 179.621094 164.535156 179.554688 164.539062 179.488281 C 164.558594 179.222656 164.5625 178.941406 164.554688 178.640625 C 164.550781 178.496094 164.542969 178.339844 164.53125 178.179688 C 164.515625 178.023438 164.496094 177.863281 164.46875 177.703125 C 164.417969 177.371094 164.355469 177.027344 164.265625 176.664062 C 164.167969 176.304688 164.054688 175.933594 163.921875 175.542969 C 163.859375 175.34375 163.773438 175.152344 163.691406 174.953125 C 163.605469 174.75 163.515625 174.546875 163.421875 174.339844 C 163.375 174.234375 163.328125 174.128906 163.277344 174.027344 C 163.222656 173.921875 163.167969 173.820312 163.109375 173.710938 C 163 173.503906 162.878906 173.285156 162.757812 173.070312 C 162.691406 172.964844 162.632812 172.847656 162.5625 172.742188 C 162.492188 172.636719 162.421875 172.527344 162.351562 172.414062 C 162.207031 172.195312 162.058594 171.972656 161.902344 171.746094 C 161.257812 170.867188 160.367188 169.832031 159.210938 168.839844 Z M 126.738281 137.726562 C 124.351562 138.253906 122.042969 139.050781 119.960938 140.027344 C 117.875 141 116.011719 142.148438 114.4375 143.316406 C 112.855469 144.476562 111.582031 145.695312 110.570312 146.738281 C 110.324219 147.003906 110.085938 147.261719 109.863281 147.5 C 109.808594 147.558594 109.753906 147.621094 109.703125 147.675781 C 109.648438 147.738281 109.597656 147.800781 109.550781 147.855469 C 109.453125 147.976562 109.355469 148.089844 109.261719 148.203125 C 108.898438 148.648438 108.578125 149.019531 108.347656 149.351562 C 107.871094 150.003906 107.609375 150.363281 107.609375 150.363281 C 107.609375 150.363281 108.011719 150.171875 108.730469 149.828125 C 109.082031 149.652344 109.535156 149.476562 110.042969 149.261719 C 110.171875 149.210938 110.304688 149.15625 110.4375 149.097656 C 110.507812 149.074219 110.574219 149.042969 110.644531 149.015625 C 110.714844 148.988281 110.789062 148.964844 110.863281 148.9375 C 111.152344 148.832031 111.460938 148.71875 111.785156 148.605469 C 113.082031 148.175781 114.605469 147.71875 116.296875 147.429688 C 117.984375 147.128906 119.8125 146.949219 121.667969 146.949219 C 123.523438 146.949219 125.398438 147.132812 127.183594 147.46875 C 128.96875 147.804688 130.667969 148.292969 132.199219 148.859375 C 133.734375 149.425781 135.101562 150.066406 136.289062 150.660156 C 137.484375 151.242188 138.476562 151.835938 139.316406 152.230469 C 140.976562 153.0625 142.359375 153.738281 143.605469 154.226562 C 143.914062 154.351562 144.210938 154.46875 144.507812 154.566406 C 144.65625 154.613281 144.800781 154.660156 144.949219 154.699219 C 145.089844 154.746094 145.230469 154.789062 145.367188 154.828125 C 145.644531 154.90625 145.921875 154.964844 146.191406 155.011719 C 146.261719 155.023438 146.328125 155.035156 146.394531 155.042969 C 146.460938 155.058594 146.527344 155.070312 146.589844 155.078125 C 146.722656 155.097656 146.851562 155.117188 146.980469 155.132812 C 147.234375 155.160156 147.488281 155.171875 147.742188 155.171875 C 147.992188 155.171875 148.238281 155.15625 148.472656 155.136719 C 148.949219 155.097656 149.414062 155 149.859375 154.859375 C 150.753906 154.570312 151.582031 154.089844 152.324219 153.441406 C 153.066406 152.792969 153.648438 152.046875 153.972656 151.132812 C 154.132812 150.675781 154.226562 150.179688 154.242188 149.636719 C 154.253906 149.359375 154.234375 149.085938 154.191406 148.800781 C 154.152344 148.511719 154.089844 148.210938 154 147.898438 C 153.957031 147.742188 153.910156 147.585938 153.851562 147.421875 C 153.824219 147.34375 153.796875 147.261719 153.765625 147.175781 C 153.734375 147.097656 153.699219 147.015625 153.660156 146.933594 C 153.515625 146.609375 153.34375 146.269531 153.144531 145.921875 C 153.042969 145.746094 152.9375 145.570312 152.824219 145.390625 C 152.703125 145.214844 152.578125 145.039062 152.441406 144.859375 C 152.175781 144.503906 151.878906 144.132812 151.546875 143.757812 C 151.203125 143.398438 150.828125 143.03125 150.421875 142.652344 C 150.222656 142.457031 150 142.28125 149.773438 142.097656 C 149.546875 141.910156 149.3125 141.726562 149.070312 141.542969 C 148.949219 141.449219 148.824219 141.351562 148.695312 141.261719 C 148.566406 141.175781 148.433594 141.085938 148.300781 140.996094 C 148.035156 140.820312 147.757812 140.640625 147.472656 140.460938 C 147.328125 140.371094 147.1875 140.277344 147.035156 140.195312 C 146.886719 140.113281 146.730469 140.027344 146.578125 139.941406 C 146.269531 139.777344 145.949219 139.605469 145.621094 139.4375 C 144.296875 138.804688 142.585938 138.144531 140.585938 137.703125 C 138.589844 137.246094 136.324219 136.964844 133.957031 136.957031 C 131.589844 136.9375 129.125 137.199219 126.738281 137.726562 Z M 143.386719 131.101562 C 143.4375 131.082031 143.492188 131.0625 143.546875 131.042969 C 143.574219 131.03125 143.601562 131.019531 143.628906 131.007812 C 143.660156 131.003906 143.6875 130.992188 143.71875 130.984375 C 143.839844 130.949219 143.964844 130.910156 144.09375 130.867188 C 144.621094 130.714844 145.242188 130.558594 145.929688 130.472656 C 146.609375 130.382812 147.347656 130.34375 148.089844 130.378906 C 148.835938 130.410156 149.585938 130.515625 150.296875 130.683594 C 151.007812 130.847656 151.679688 131.074219 152.285156 131.332031 C 152.890625 131.585938 153.429688 131.867188 153.894531 132.125 C 154.363281 132.378906 154.75 132.636719 155.082031 132.808594 C 155.734375 133.171875 156.277344 133.46875 156.765625 133.683594 C 156.890625 133.742188 157.007812 133.796875 157.125 133.839844 C 157.183594 133.859375 157.242188 133.878906 157.300781 133.898438 C 157.355469 133.921875 157.410156 133.9375 157.464844 133.957031 C 157.574219 133.992188 157.683594 134.023438 157.792969 134.046875 C 157.820312 134.054688 157.847656 134.058594 157.875 134.0625 C 157.898438 134.070312 157.925781 134.074219 157.953125 134.082031 C 158.003906 134.09375 158.054688 134.097656 158.105469 134.109375 C 158.207031 134.125 158.3125 134.136719 158.410156 134.136719 C 158.511719 134.144531 158.613281 134.140625 158.707031 134.136719 C 158.898438 134.128906 159.085938 134.097656 159.265625 134.050781 C 159.628906 133.949219 159.972656 133.773438 160.28125 133.523438 C 160.589844 133.28125 160.839844 132.988281 160.984375 132.625 C 161.054688 132.445312 161.101562 132.25 161.117188 132.03125 C 161.128906 131.921875 161.125 131.8125 161.113281 131.695312 C 161.101562 131.578125 161.082031 131.457031 161.054688 131.328125 C 161.039062 131.265625 161.019531 131.203125 161 131.136719 C 160.992188 131.101562 160.980469 131.070312 160.96875 131.039062 C 160.960938 131.003906 160.945312 130.96875 160.933594 130.9375 C 160.878906 130.804688 160.816406 130.664062 160.742188 130.523438 C 160.707031 130.449219 160.664062 130.378906 160.625 130.300781 C 160.578125 130.230469 160.53125 130.15625 160.480469 130.082031 C 160.378906 129.9375 160.265625 129.78125 160.140625 129.625 C 160.007812 129.472656 159.867188 129.316406 159.710938 129.160156 C 159.632812 129.078125 159.546875 129.003906 159.457031 128.925781 C 159.371094 128.847656 159.28125 128.769531 159.183594 128.691406 C 159.136719 128.652344 159.089844 128.613281 159.039062 128.570312 C 158.988281 128.535156 158.9375 128.496094 158.886719 128.460938 C 158.78125 128.382812 158.675781 128.308594 158.5625 128.226562 C 158.507812 128.191406 158.453125 128.148438 158.394531 128.113281 C 158.332031 128.078125 158.273438 128.042969 158.214844 128.003906 C 158.09375 127.933594 157.96875 127.859375 157.839844 127.785156 C 157.316406 127.507812 156.644531 127.210938 155.847656 127 C 155.054688 126.785156 154.152344 126.628906 153.199219 126.582031 C 152.25 126.535156 151.257812 126.597656 150.289062 126.765625 C 149.320312 126.933594 148.382812 127.214844 147.527344 127.570312 C 146.675781 127.921875 145.90625 128.351562 145.253906 128.792969 C 144.597656 129.226562 144.066406 129.695312 143.640625 130.097656 C 143.535156 130.199219 143.4375 130.296875 143.34375 130.390625 C 143.320312 130.414062 143.296875 130.433594 143.277344 130.457031 C 143.253906 130.480469 143.234375 130.503906 143.210938 130.527344 C 143.171875 130.574219 143.128906 130.617188 143.089844 130.660156 C 142.933594 130.832031 142.800781 130.976562 142.703125 131.105469 C 142.5 131.359375 142.390625 131.5 142.390625 131.5 C 142.390625 131.5 142.550781 131.429688 142.847656 131.304688 C 142.992188 131.238281 143.175781 131.175781 143.386719 131.101562 Z M 161.265625 235.113281 C 157.667969 236.304688 154.449219 237.136719 151.765625 237.785156 C 149.078125 238.390625 146.925781 238.816406 145.453125 239.074219 C 143.972656 239.335938 143.179688 239.476562 143.179688 239.476562 C 143.179688 239.476562 143.378906 239.511719 143.761719 239.570312 C 144.148438 239.628906 144.71875 239.722656 145.46875 239.824219 C 146.214844 239.949219 147.140625 240.03125 148.234375 240.136719 C 149.332031 240.265625 150.589844 240.304688 152.011719 240.375 C 154.847656 240.464844 158.320312 240.417969 162.289062 240.015625 C 163.28125 239.914062 164.308594 239.8125 165.355469 239.644531 C 166.40625 239.496094 167.488281 239.335938 168.589844 239.132812 C 169.144531 239.035156 169.703125 238.945312 170.269531 238.832031 C 170.832031 238.710938 171.398438 238.589844 171.976562 238.464844 C 173.132812 238.230469 174.296875 237.929688 175.496094 237.644531 C 180.265625 236.421875 185.347656 234.769531 190.554688 232.699219 C 195.761719 230.636719 201.105469 228.179688 206.496094 225.515625 C 211.886719 222.847656 217.339844 219.980469 222.816406 217.109375 C 228.296875 214.238281 233.816406 211.390625 239.378906 208.765625 C 242.15625 207.449219 244.945312 206.195312 247.738281 205.003906 C 250.539062 203.839844 253.339844 202.734375 256.136719 201.71875 C 256.839844 201.472656 257.539062 201.226562 258.238281 200.980469 C 258.933594 200.730469 259.640625 200.523438 260.339844 200.285156 C 261.039062 200.050781 261.734375 199.824219 262.4375 199.617188 C 263.136719 199.410156 263.832031 199.1875 264.53125 198.988281 C 267.324219 198.179688 270.105469 197.484375 272.863281 196.867188 C 278.378906 195.679688 283.804688 194.886719 289.007812 194.464844 C 294.214844 194.050781 299.199219 193.957031 303.828125 194.101562 C 308.453125 194.234375 312.730469 194.554688 316.523438 194.980469 C 317 195.023438 317.46875 195.070312 317.929688 195.117188 C 318.386719 195.175781 318.835938 195.234375 319.28125 195.289062 C 320.167969 195.40625 321.023438 195.507812 321.855469 195.601562 C 323.503906 195.839844 325.023438 196.054688 326.394531 196.25 C 327.753906 196.476562 328.980469 196.671875 330.054688 196.828125 C 331.125 197 332.039062 197.175781 332.78125 197.292969 C 334.269531 197.53125 335.0625 197.65625 335.0625 197.65625 C 335.0625 197.65625 334.351562 197.285156 333.015625 196.582031 C 332.34375 196.242188 331.53125 195.800781 330.539062 195.339844 C 329.550781 194.871094 328.40625 194.347656 327.113281 193.765625 C 325.820312 193.199219 324.371094 192.617188 322.789062 191.976562 C 321.992188 191.671875 321.160156 191.363281 320.292969 191.054688 C 319.859375 190.894531 319.417969 190.734375 318.96875 190.570312 C 318.511719 190.421875 318.054688 190.265625 317.585938 190.109375 C 313.835938 188.839844 309.507812 187.65625 304.6875 186.675781 C 299.867188 185.71875 294.546875 184.984375 288.847656 184.738281 C 283.15625 184.488281 277.101562 184.738281 270.894531 185.558594 C 267.800781 185.980469 264.664062 186.546875 261.523438 187.246094 C 258.394531 187.972656 255.25 188.808594 252.132812 189.796875 C 249.019531 190.792969 245.925781 191.894531 242.871094 193.109375 C 239.824219 194.328125 236.816406 195.660156 233.855469 197.042969 C 227.945312 199.84375 222.242188 202.921875 216.773438 206.054688 C 211.296875 209.1875 206.054688 212.378906 201 215.402344 C 195.949219 218.429688 191.085938 221.292969 186.421875 223.851562 C 184.085938 225.125 181.804688 226.335938 179.574219 227.449219 C 178.464844 228.023438 177.359375 228.542969 176.273438 229.070312 C 175.1875 229.578125 174.109375 230.058594 173.058594 230.539062 C 172 231 170.96875 231.476562 169.941406 231.882812 C 169.425781 232.09375 168.921875 232.300781 168.417969 232.507812 C 167.914062 232.703125 167.417969 232.898438 166.925781 233.085938 C 165.945312 233.484375 164.976562 233.832031 164.03125 234.164062 C 163.089844 234.519531 162.160156 234.800781 161.265625 235.113281 " fill-opacity="1" fill-rule="nonzero"/></g><g clip-path="url(#1acbfac5f3)"><path fill="#fffcf6" d="M 254.074219 216.1875 C 241.597656 261.179688 200.394531 294.199219 151.480469 294.199219 C 92.683594 294.199219 45.019531 246.484375 45.019531 187.621094 C 45.019531 128.757812 92.683594 81.039062 151.480469 81.039062 C 210.28125 81.039062 257.945312 128.757812 257.945312 187.621094 C 257.945312 190.160156 257.851562 192.675781 257.675781 195.171875 L 268.992188 192.632812 C 269.0625 190.972656 269.101562 189.296875 269.101562 187.621094 C 269.101562 122.585938 216.441406 69.871094 151.480469 69.871094 C 86.523438 69.871094 33.863281 122.585938 33.863281 187.621094 C 33.863281 252.652344 86.523438 305.367188 151.480469 305.367188 C 208.789062 305.367188 256.523438 264.335938 266.972656 210.019531 L 254.074219 216.1875 " fill-opacity="1" fill-rule="nonzero"/></g></svg>